<?xml version="1.0" encoding="utf-8"?>
<!-- Generator: Adobe Illustrator 21.1.0, SVG Export Plug-In . SVG Version: 6.00 Build 0)  -->
<svg version="1.1" xmlns="http://www.w3.org/2000/svg" xmlns:xlink="http://www.w3.org/1999/xlink" x="0px" y="0px"
	 viewBox="0 0 140 48" style="enable-background:new 0 0 140 48;" xml:space="preserve">
<style type="text/css">
	.st0{display:none;}
	.st1{display:inline;fill:#382F1D;stroke:#000000;stroke-miterlimit:10;}
	.st2{display:inline;fill:#101738;stroke:#000000;stroke-miterlimit:10;}
	.st3{display:inline;fill:#160B35;stroke:#FFFFFF;stroke-miterlimit:10;}
	.st4{fill:url(#SVGID_1_);}
	.st5{fill:url(#SVGID_2_);}
	.st6{fill:#FFFFFF;}
	.st7{fill:none;}
	.st8{fill:#BF2F2F;}
	.st9{fill:#DD7E58;}
	.st10{fill:none;stroke:#7DBBF9;stroke-width:0.5;stroke-miterlimit:10;}
	.st11{fill:#F90000;}
	.st12{display:inline;fill:#7DBBF9;}
	.st13{display:inline;fill:none;stroke:#7DBBF9;stroke-width:0.5;stroke-miterlimit:10;}
	.st14{fill:#FFFFFF;stroke:#7DBBF9;stroke-width:0.7;stroke-miterlimit:10;}
	.st15{fill:none;stroke:#7DBBF9;stroke-width:0.7;stroke-miterlimit:10;}
</style>
<g id="图层_4" class="st0">
	<rect class="st1" width="138.4" height="53.2"/>
</g>
<g id="图层_1">
	<g id="图层_2_2_">
	</g>
	<g id="图层_1_3_">
		<g id="图层_2_1_" class="st0">
			<rect y="-8" class="st2" width="140" height="64"/>
		</g>
		<g id="图层_1_2_">
			<g id="图层_3" class="st0">
				<rect y="-7.8" class="st3" width="140" height="64"/>
			</g>
			<g id="图层_1_1_">
				<linearGradient id="SVGID_1_" gradientUnits="userSpaceOnUse" x1="2.6" y1="13.05" x2="39.7" y2="13.05">
					<stop  offset="0" style="stop-color:#FCD61D"/>
					<stop  offset="1" style="stop-color:#F97F06"/>
				</linearGradient>
				<path class="st4" d="M2.6,17.1C8.7,14.4,15,11.7,21.2,9c6.2,2.7,12.4,5.4,18.5,8.1c-6.2-1.3-12.4-2.6-18.5-4
					C14.9,14.4,8.7,15.7,2.6,17.1z"/>
				<linearGradient id="SVGID_2_" gradientUnits="userSpaceOnUse" x1="1.6" y1="30.25" x2="40.3" y2="30.25">
					<stop  offset="0" style="stop-color:#FCD61D"/>
					<stop  offset="1" style="stop-color:#F97F06"/>
				</linearGradient>
				<path class="st5" d="M40.3,40.1H1.6V20.4c0.9,2.9,1.8,5.7,2.7,8.5c0,3,0,6,0,9c11-0.1,22.2-0.2,33.2-0.3c0-3,0.1-5.9,0.1-8.8
					c0.9-2.8,1.8-5.6,2.7-8.4V40.1z"/>
				<path class="st6" d="M52.5,25.8"/>
				<line class="st7" x1="28.6" y1="32.4" x2="13.6" y2="23.7"/>
				<line class="st7" x1="28.7" y1="23.9" x2="13.4" y2="32.2"/>
				<path class="st6" d="M66.2,40h-6.5l-8.3-17.5l-0.1,0.1v17.5H47V19h6.9l8,16.7l0.1-0.1V18.9h4.3L66.2,40L66.2,40z"/>
				<path class="st6" d="M71.5,21c0.7-0.4,1.4-0.8,2.2-1.2c0.8,0.4,1.5,0.7,2.3,1.1c0,6.4-0.1,12.8-0.1,19.1h-4.4
					C71.5,33.7,71.5,27.3,71.5,21z"/>
				<path class="st6" d="M89.3,40c-2.6,0-4.9-0.8-7-2.5c-2-1.7-3-4.4-3.1-7.9c0-3,1-5.4,2.6-7.4s4.2-3,7.4-3.2
					c2.3,0,4.5,0.8,6.6,2.5c2,1.7,3.1,4.4,3.3,8.2c0,3-1,5.5-2.6,7.4C94.8,38.9,92.3,39.9,89.3,40z M89.3,22
					c-3.6,0.2-5.3,2.7-5.3,7.6c0.1,2.7,0.7,4.6,1.8,5.9c1.1,1.1,2.3,1.7,3.6,1.6c3.4-0.2,5.1-2.7,5.2-7.4c0-2.2-0.4-4.1-1.2-5.4
					C92.3,22.8,91.1,22.2,89.3,22z"/>
				<path class="st6" d="M107.5,39.7h-4.4V19.3h6.3c5.7,0,8.5,2.1,8.3,6.3c0,2.4-0.7,4-2,4.9c-1.4,1-3,1.4-5.1,1.4h-3.3L107.5,39.7
					L107.5,39.7z M108.9,22.6h-1.4v5.7h1.4c1.6,0,2.7-0.3,3.4-0.8c0.7-0.5,1-1.3,1-2.4c0-1-0.4-1.7-1.2-2.1
					C111.2,22.9,110.2,22.6,108.9,22.6z"/>
				<path class="st6" d="M137.7,25.2h-4.2c-0.1-1-0.5-1.6-1.1-2.2s-1.4-0.8-2.3-1c-1.9,0-3,1-3.3,2.7c0,0.6,0.3,1.1,0.8,1.6
					s1.5,1,3,1.4c1.8,0.3,3.4,1,5.1,1.7c1.6,1,2.6,2.4,2.7,4.3c0,2.1-0.8,3.6-2.5,4.6c-1.5,1-3.6,1.4-5.9,1.4
					c-1.5,0.2-3.3-0.3-5.1-1.1c-1.9-0.8-2.9-2.7-3.3-5.5h4.5c-0.1,0.2,0.1,0.8,0.5,1.9c0.4,1.1,1.5,1.7,3,1.9c1.1,0,2-0.2,2.9-0.6
					c0.7-0.5,1.1-1.1,1.2-2.1c0.1-0.3-0.1-0.8-0.5-1.3s-1.5-1.1-3.4-1.6c-0.1,0-0.4-0.2-0.8-0.2c0,0-0.4,0-1.1-0.3
					c-0.7-0.2-1.5-0.5-2.3-1s-1.6-1.1-2.3-1.9c-0.7-0.8-1.1-1.9-1.1-3c0-1.9,0.8-3.3,2.2-4.4c1.4-1.1,3.3-1.7,5.7-1.7
					C134.3,18.8,136.9,20.9,137.7,25.2z"/>
				<g>
					<ellipse class="st8" cx="73.7" cy="13.8" rx="5.5" ry="4"/>
					<g>
						<path class="st6" d="M68.2,13.8c1.8-0.5,3.7-0.6,5.5-0.6s3.7,0.1,5.5,0.6c-1.8,0.5-3.7,0.6-5.5,0.6
							C71.9,14.2,70,14.2,68.2,13.8z"/>
					</g>
					<g>
						<path class="st6" d="M73.7,9.9c0.5,1.3,0.6,2.6,0.6,3.9s-0.1,2.6-0.6,3.9c-0.5-1.3-0.6-2.6-0.6-3.9S73.2,11.1,73.7,9.9z"/>
					</g>
				</g>
				<path class="st9" d="M28.5,23"/>
				<path class="st10" d="M28.5,33.5"/>
				<path class="st10" d="M28.5,23"/>
				<path class="st10" d="M13.5,23.2"/>
				<path class="st10" d="M13.5,33.7"/>
			</g>
		</g>
	</g>
	<path class="st6" d="M153.8,23"/>
	<path class="st6" d="M80-9.1"/>
	<path class="st11" d="M172.5,27.8"/>
	<path class="st6" d="M79.8,60.8"/>
</g>
<g id="图层_3_1_" class="st0">
	<path class="st12" d="M28.5,23L28.5,23c-0.1-0.7,0.3-1.4,1-1.5l1.1-0.2c0.7-0.1,1.4,0.3,1.5,1l0,0c0.1,0.7-0.3,1.4-1,1.5L30,24
		C29.3,24.1,28.6,23.7,28.5,23z"/>
	<path class="st12" d="M32.1,33.8L32.1,33.8c-0.1,0.7-0.8,1.2-1.5,1l-1.1-0.2c-0.7-0.1-1.2-0.8-1-1.5l0,0c0.1-0.7,0.8-1.2,1.5-1
		l1.1,0.2C31.8,32.4,32.3,33.1,32.1,33.8z"/>
	<path class="st12" d="M13.7,23L13.7,23c-0.1,0.7-0.8,1.2-1.5,1l-1.1-0.2c-0.7-0.1-1.2-0.8-1-1.5l0,0c0.1-0.7,0.8-1.2,1.5-1l1.1,0.2
		C13.3,21.6,13.9,22.3,13.7,23z"/>
	<path class="st12" d="M10.1,34.1L10.1,34.1c-0.3-0.7,0.2-1.4,0.8-1.7l1-0.3c0.7-0.3,1.4,0.2,1.7,0.8l0,0c0.3,0.7-0.2,1.4-0.8,1.7
		l-1,0.3C11.1,35.1,10.3,34.8,10.1,34.1z"/>
	<circle class="st12" cx="21" cy="28.4" r="3.8"/>
	<path class="st13" d="M28.5,23c-4.9,3.7-4.9,7.3,0,10.5"/>
	<path class="st13" d="M13.5,33.7c4.9-3.7,4.9-7.3,0-10.5"/>
</g>
<g id="图层_2">
	<circle class="st14" cx="11.1" cy="27.3" r="2"/>
	<line class="st15" x1="19.6" y1="21.8" x2="12.7" y2="26.3"/>
	<line class="st15" x1="12.6" y1="28.4" x2="20.1" y2="32.5"/>
	<line class="st15" x1="23.2" y1="32.1" x2="29.5" y2="28.8"/>
	<line class="st15" x1="29.3" y1="26.6" x2="22.9" y2="22.1"/>
	<circle class="st14" cx="21.1" cy="32.4" r="2"/>
	<circle class="st14" cx="31.1" cy="27.3" r="2"/>
	<circle class="st14" cx="21.1" cy="21.4" r="2"/>
</g>
</svg>
